<svg xmlns="http://www.w3.org/2000/svg" width="1600" height="500" viewBox="0 0 1600 500" role="img" aria-labelledby="title">
  <title id="title">Kenaz Lantern horizontal logo with tagline</title>
  
  
     <g transform="translate(58 46) scale(0.796875)">
    <path d="M256 70 L392 150 V344 L256 442 L120 344 V150 Z" fill="#11161B" stroke="#313C48" stroke-width="16" stroke-linejoin="miter"/>
    <path d="M256 92 L368 158 L312 208 L200 208 L144 158 Z" fill="#7C9AB3" opacity="0.36"/>
    <path d="M144 158 L200 208 L200 326 L144 358 Z" fill="#7C9AB3" opacity="0.56"/>
    <path d="M368 158 L312 208 L312 326 L368 358 Z" fill="#90ADC5" opacity="0.74"/>
    <path d="M200 208 H312 V326 L256 390 L200 326 Z" fill="#000000" stroke="#7C9AB3" stroke-width="12"/>
    <path d="M256 153 C300 209 302 250 284 282 C274 300 264 312 256 320 C248 312 238 300 228 282 C210 250 212 209 256 153 Z" fill="#90ADC5"/>
    <path d="M256 205 C276 232 279 253 269 272 C264 281 259 287 256 291 C253 287 248 281 243 272 C233 253 236 232 256 205 Z" fill="#F4F7FA"/>
    <path d="M221 78 H291" stroke="#90ADC5" stroke-width="16"/>
    <path d="M221 434 H291" stroke="#90ADC5" stroke-width="16"/>
  </g>
     <g transform="translate(515 292) scale(0.152 -0.152)" fill="#F4F7FA" opacity="1">
    <path d="M563 0 296 341H193L510 730H673L387 380L383 450L736 0ZM90 0V730H232V0Z" transform="translate(0 0)"/>
<path d="M322 -19Q252 -19 199.5 5.0Q147 29 112.5 69.5Q78 110 60.5 160.0Q43 210 43 262V281Q43 335 60.5 385.5Q78 436 112.5 475.5Q147 515 198.0 538.5Q249 562 316 562Q404 562 463.5 523.5Q523 485 553.0 422.5Q583 360 583 288V238H102V323H496L453 281Q453 333 438.0 370.0Q423 407 392.5 427.0Q362 447 316 447Q270 447 238.0 426.0Q206 405 189.5 365.5Q173 326 173 271Q173 220 189.0 180.5Q205 141 238.0 118.5Q271 96 322 96Q373 96 405.0 116.5Q437 137 446 167H574Q562 111 528.0 69.0Q494 27 441.5 4.0Q389 -19 322 -19Z" transform="translate(706 0)"/>
<path d="M79 0V543H189V310H179Q179 393 201.0 448.5Q223 504 266.5 532.0Q310 560 375 560H381Q478 560 528.0 497.5Q578 435 578 311V0H439V323Q439 373 410.5 404.0Q382 435 332 435Q281 435 249.5 403.5Q218 372 218 319V0Z" transform="translate(1304 0)"/>
<path d="M408 0V161H385V340Q385 387 362.0 410.0Q339 433 291 433Q266 433 231.0 432.0Q196 431 160.5 429.5Q125 428 97 426V544Q120 546 149.0 548.0Q178 550 208.5 550.5Q239 551 266 551Q350 551 405.5 529.0Q461 507 489.5 460.0Q518 413 518 337V0ZM233 -14Q174 -14 129.5 7.0Q85 28 60.5 67.0Q36 106 36 161Q36 221 65.5 259.0Q95 297 148.5 316.0Q202 335 274 335H400V252H272Q224 252 198.5 228.5Q173 205 173 168Q173 131 198.5 108.0Q224 85 272 85Q301 85 325.5 95.5Q350 106 366.5 131.5Q383 157 385 201L419 162Q414 105 391.5 66.0Q369 27 329.5 6.5Q290 -14 233 -14Z" transform="translate(1930 0)"/>
<path d="M44 0V110L312 432V416L291 444L308 436H43V543H457V433L189 111V126L211 98L194 107H468V0Z" transform="translate(2496 0)"/>
  </g>
     <g transform="translate(520 365) scale(0.03 -0.03)" fill="#90ADC5" opacity="1">
    <path d="M89 0V700H314Q386 700 437.5 678.0Q489 656 517.5 613.0Q546 570 546 507Q546 459 523.5 421.5Q501 384 461 360Q513 335 540.5 293.0Q568 251 568 193Q568 132 540.5 88.5Q513 45 463.0 22.5Q413 0 343 0ZM186 89H337Q399 89 433.5 118.5Q468 148 468 198Q468 254 428.5 284.5Q389 315 318 315H186ZM186 399H330Q384 399 415.5 428.0Q447 457 447 508Q447 561 411.0 589.5Q375 618 310 618H186Z" transform="translate(0 0)"/>
<path d="M89 0V700H325Q395 700 448.5 672.5Q502 645 532.5 596.5Q563 548 563 484Q563 415 524.0 363.0Q485 311 422 287L591 0H480L324 268Q318 268 311.0 268.0Q304 268 297 268H187V0ZM187 358H334Q370 358 398.5 374.5Q427 391 444.5 419.5Q462 448 462 484Q462 540 423.0 575.0Q384 610 322 610H187Z" transform="translate(726 0)"/>
<path d="M89 0V700H187V0Z" transform="translate(1472 0)"/>
<path d="M89 0V700H190L586 164V700H685V0H586L187 541V0Z" transform="translate(1863 0)"/>
<path d="M407 -12Q301 -12 218.5 34.5Q136 81 89.5 162.5Q43 244 43 349Q43 456 89.5 537.5Q136 619 218.5 665.5Q301 712 407 712Q465 712 518.5 693.5Q572 675 615.5 642.5Q659 610 686 568L607 516Q587 547 555.0 571.0Q523 595 484.5 608.5Q446 622 407 622Q330 622 270.5 587.0Q211 552 177.0 491.0Q143 430 143 349Q143 270 176.5 209.0Q210 148 270.5 113.0Q331 78 409 78Q471 78 520.0 103.5Q569 129 597.5 174.5Q626 220 627 280H458V362H723V290Q722 199 681.5 131.0Q641 63 570.0 25.5Q499 -12 407 -12Z" transform="translate(2752 0)"/>
<path d="" transform="translate(3623 0)"/>
<path d="M89 0V700H187V0Z" transform="translate(3982 0)"/>
<path d="M231 0V610H12V700H549V610H330V0Z" transform="translate(4373 0)"/>
<path d="" transform="translate(5049 0)"/>
<path d="M89 0V700H187V0Z" transform="translate(5408 0)"/>
<path d="M89 0V700H190L586 164V700H685V0H586L187 541V0Z" transform="translate(5799 0)"/>
<path d="M231 0V610H12V700H549V610H330V0Z" transform="translate(6688 0)"/>
<path d="M392 -12Q290 -12 211.0 34.0Q132 80 87.5 162.0Q43 244 43 350Q43 456 87.5 537.5Q132 619 210.0 665.5Q288 712 390 712Q492 712 570.0 665.5Q648 619 692.0 537.5Q736 456 736 350Q736 244 692.0 162.0Q648 80 570.5 34.0Q493 -12 392 -12ZM392 78Q464 78 519.0 113.0Q574 148 605.0 209.0Q636 270 636 350Q636 429 604.5 490.5Q573 552 517.5 587.0Q462 622 390 622Q318 622 262.0 587.0Q206 552 174.5 490.5Q143 429 143 350Q143 270 175.0 209.0Q207 148 263.5 113.0Q320 78 392 78Z" transform="translate(7364 0)"/>
<path d="" transform="translate(8258 0)"/>
<path d="M231 0V610H12V700H549V610H330V0Z" transform="translate(8617 0)"/>
<path d="M89 0V700H187V405H564V700H662V0H564V315H187V0Z" transform="translate(9293 0)"/>
<path d="M89 0V700H510V610H187V402H478V314H187V90H512V0Z" transform="translate(10159 0)"/>
<path d="" transform="translate(10865 0)"/>
<path d="M89 0V700H187V90H512V0Z" transform="translate(11224 0)"/>
<path d="M89 0V700H187V0Z" transform="translate(11863 0)"/>
<path d="M407 -12Q301 -12 218.5 34.5Q136 81 89.5 162.5Q43 244 43 349Q43 456 89.5 537.5Q136 619 218.5 665.5Q301 712 407 712Q465 712 518.5 693.5Q572 675 615.5 642.5Q659 610 686 568L607 516Q587 547 555.0 571.0Q523 595 484.5 608.5Q446 622 407 622Q330 622 270.5 587.0Q211 552 177.0 491.0Q143 430 143 349Q143 270 176.5 209.0Q210 148 270.5 113.0Q331 78 409 78Q471 78 520.0 103.5Q569 129 597.5 174.5Q626 220 627 280H458V362H723V290Q722 199 681.5 131.0Q641 63 570.0 25.5Q499 -12 407 -12Z" transform="translate(12254 0)"/>
<path d="M89 0V700H187V405H564V700H662V0H564V315H187V0Z" transform="translate(13125 0)"/>
<path d="M231 0V610H12V700H549V610H330V0Z" transform="translate(13991 0)"/>
  </g>
</svg>
